<svg id="Flat" height="512" viewBox="0 0 512 512" width="512" xmlns="http://www.w3.org/2000/svg"><path d="m208 152h-16l-8 32v16h32v-16z" fill="#737d49"/><g fill="#606669"><path d="m136 392a8 8 0 0 1 -8-8v-40a8 8 0 0 1 16 0v40a8 8 0 0 1 -8 8z"/><path d="m216 392a8 8 0 0 1 -8-8v-40a8 8 0 0 1 16 0v40a8 8 0 0 1 -8 8z"/><path d="m248 392h-144a7.994 7.994 0 0 1 -3.578-.845l-16-8a8 8 0 0 1 7.156-14.31l14.311 7.155h140.222l14.311-7.155a8 8 0 1 1 7.156 14.31l-16 8a7.994 7.994 0 0 1 -3.578.845z"/></g><path d="m120 232-85.623 78.488a32 32 0 0 0 -10.377 23.589v1.923a16 16 0 0 0 16 16h183.434a16 16 0 0 0 13.212-6.976c14.232-20.812 58.267-81.024 91.354-81.024h160v-32h-216v-48h-96v16h-48z" fill="#737d49"/><path d="m272 184v48h-152l8-32h48v-16z" fill="#60663c"/><path d="m120 232-24 64h-45.82z" fill="#cfdb8c"/><path d="m120 320 16-56h32v56z" fill="#60663c"/><path d="m224 152c0-17.673-10.745-32-24-32s-24 14.327-24 32z" fill="#737d49"/><path d="m424 232 32-64h32v64z" fill="#60663c"/><path d="m424 264 32 64h32v-64z" fill="#60663c"/><path d="m368 160h-336a8 8 0 0 1 0-16h336a8 8 0 0 1 0 16z" fill="#606669"/></svg>