<svg id="Layer_1" enable-background="new 0 0 512 512" height="512" viewBox="0 0 512 512" width="512" xmlns="http://www.w3.org/2000/svg"><g><g><g><path d="m441.74 512h-371.48c-13.08 0-23.34-11.21-22.18-24.23l.95-10.66 3.53-39.32.08-.94c2.83-31.6 25.74-57.78 56.71-64.79l99.88-22.61 71.34.32 23.96.11 68.1 15.4h.01l21.83 4.94 8.16 1.84c30.98 7.01 53.9 33.19 56.73 64.81l.08.91v.01l3.53 39.32.95 10.66c1.16 13.02-9.1 24.23-22.18 24.23z" fill="#ff755a"/><path d="m441.74 512h-29.99c13.07 0 23.34-11.21 22.18-24.23l-4.56-50.9c-2.11-23.6-15.41-51.23-34.9-66.65l8.16 1.84c30.98 7.01 53.9 33.19 56.73 64.81l.08.91v.01l3.53 39.32.95 10.66c1.16 13.02-9.1 24.23-22.18 24.23z" fill="#f43838"/><path d="m125.344 449.43v39.89l-76.31-12.21 3.53-39.32z" fill="#fff24a"/><path d="m462.97 477.11-29.57 4.73-46.74 7.48v-39.89l43.22-6.91 29.56-4.73z" fill="#fff24a"/><g fill="#f43838"><path d="m132.841 432.438v79.562h-15v-79.562c0-4.139 3.35-7.499 7.5-7.499 4.14-.001 7.5 3.359 7.5 7.499z"/><path d="m394.161 432.438v79.562h-15v-79.562c0-4.139 3.36-7.499 7.5-7.499s7.5 3.359 7.5 7.499z"/></g></g><g><path d="m462.97 477.11-29.57 4.73-3.52-39.32 29.56-4.73z" fill="#ffbe2c"/></g><path d="m304.35 349.22.18.66c-2.74 2.349-5.59 4.719-8.54 7.118-10.98 8.918-24.7 13.776-38.86 13.746-14.16.03-27.9-4.839-38.89-13.776-3.13-2.529-6.13-5.039-9.01-7.518 2.04-7.708 3.22-15.605 3.52-23.543.06-1.42.09-2.829.09-4.249 0-5.358-.39-10.717-1.19-16.045l-2.42-16.206h95.3l-2.46 16.475c-1.01 6.728-1.38 13.516-1.12 20.284.3 7.768 1.44 15.496 3.4 23.054z" fill="#ffd6ae"/><g fill="#f43838"><path d="m257.13 370.744-41.988 30.279c-2.064 1.489-4.981.511-5.731-1.92l-14.325-46.447 17.244-20.477z"/><path d="m257.13 370.744 41.988 30.279c2.064 1.489 4.981.511 5.731-1.92l14.17-45.944-17.624-20.519z"/><path d="m177.881 356.512c-1.928-8.131-10.086-13.161-18.221-11.233l-31.38 6.92c-8.135 1.927-13.167 10.081-11.239 18.213 1.928 8.131 10.086 13.161 18.221 11.233l31.38-6.921c8.135-1.926 13.167-10.081 11.239-18.212z"/><path d="m333.513 356.512c1.928-8.131 10.086-13.161 18.221-11.233l31.38 6.92c8.135 1.927 13.167 10.081 11.239 18.213-1.928 8.131-10.086 13.161-18.221 11.233l-31.38-6.921c-8.135-1.926-13.167-10.081-11.239-18.212z"/><g><path d="m285.946 448.938h17.449c4.142 0 7.5-3.357 7.5-7.5s-3.358-7.5-7.5-7.5h-17.449c-4.142 0-7.5 3.357-7.5 7.5s3.358 7.5 7.5 7.5z"/><path d="m303.395 463.934h-17.449c-4.142 0-7.5 3.357-7.5 7.5s3.358 7.5 7.5 7.5h17.449c4.142 0 7.5-3.357 7.5-7.5s-3.358-7.5-7.5-7.5z"/></g><path d="m249.63 370.74h15v141.26h-15z"/></g><g><g fill="#ffb185"><path d="m150.481 185.262c-5.379 5.443-8.29 12.654-8.195 20.303.189 15.465 12.932 28.047 28.406 28.047h3.5v-56.79h-3.5c-7.655 0-14.832 2.998-20.211 8.44z"/><path d="m363.739 185.262c-5.379-5.443-12.557-8.44-20.211-8.44h-3.5v56.79h3.5c15.473 0 28.216-12.582 28.406-28.047.095-7.65-2.816-14.86-8.195-20.303z"/></g><path d="m302.3 305.89c-1.01 6.727-1.38 13.514-1.12 20.28-2.23 1.909-4.54 3.828-6.94 5.767-10.39 8.436-23.49 13.094-36.9 13.094h-.23c-13.4 0-26.52-4.658-36.93-13.134-2.49-2.019-4.89-4.008-7.2-5.987.06-1.419.09-2.829.09-4.248 0-5.357-.39-10.715-1.19-16.042l-2.42-16.202h95.3z" fill="#ffb185"/><path d="m346.781 163.565-90.783-39.999-88.783 39.999c2.137 20.814 2.679 47.407 1.253 61.936-.186 2.127-.28 4.397-.28 6.747 0 22.07 16.936 46.497 51.76 74.663 10.414 8.472 23.535 13.134 36.932 13.133h.23c13.408 0 26.513-4.652 36.901-13.097 34.854-28.193 51.796-52.627 51.796-74.697 0-2.335-.094-4.617-.288-6.875-1.415-14.438-.873-41.011 1.262-61.81z" fill="#ffd6ae"/><g><path d="m276.415 256.722h-40.372c-4.142 0-7.5 3.356-7.5 7.496s3.358 7.496 7.5 7.496h40.372c4.143 0 7.5-3.356 7.5-7.496s-3.358-7.496-7.5-7.496z" fill="#ffb185"/></g></g></g><path d="m382.06 135.98v7.5h-251.54v-7.5c0-41.34 20.05-78.08 50.94-101.02 11.95-8.87 25.53-15.68 40.2-19.88 11.01-3.16 22.63-4.85 34.63-4.85 27.49 0 52.94 8.86 73.66 23.87 31.55 22.88 52.11 60.02 52.11 101.88z" fill="#ff755a"/><path d="m382.06 135.98v7.5h-20v-3.5c0-41.86-20.56-79-52.11-101.88-20.72-15.01-46.17-23.87-73.66-23.87-4.94 0-9.83.29-14.63.85 11.01-3.16 22.63-4.85 34.63-4.85 27.49 0 52.94 8.86 73.66 23.87 31.55 22.88 52.11 60.02 52.11 101.88z" fill="#f43838"/><path d="m329.95 34.1v109.38h-148.49v-108.52c11.95-8.87 25.53-15.68 40.2-19.88 11.01-3.16 22.63-4.85 34.63-4.85 27.49 0 52.94 8.86 73.66 23.87z" fill="#9ca9b7"/><path d="m329.95 34.1v22.03c-6-6.69-12.71-12.74-20-18.03-20.72-15.01-46.17-23.87-73.66-23.87-4.94 0-9.83.29-14.63.85 11.01-3.16 22.63-4.85 34.63-4.85 27.49 0 52.94 8.86 73.66 23.87z" fill="#75818e"/><path d="m289.84 107.85c0 18.85-15.28 34.13-34.14 34.13-3.48 0-6.84-.52-10-1.48-13.97-4.28-24.13-17.28-24.13-32.65s10.16-28.37 24.13-32.65c3.16-.96 6.52-1.48 10-1.48 18.86 0 34.14 15.28 34.14 34.13z" fill="#fff24a"/><path d="m289.84 107.85c0 18.85-15.28 34.13-34.14 34.13-3.48 0-6.84-.52-10-1.48 13.98-4.28 24.14-17.28 24.14-32.65s-10.16-28.37-24.14-32.65c3.16-.96 6.52-1.48 10-1.48 18.86 0 34.14 15.28 34.14 34.13z" fill="#ffbe2c"/><g><path d="m349.99 20.04v113.44c0 2.76-2.24 5-5 5h-30.07c-2.76 0-5-2.24-5-5v-113.44c0-7.61 4.26-14.24 10.52-17.63 2.83-1.54 6.07-2.41 9.51-2.41 11.05 0 20.04 8.99 20.04 20.04z" fill="#f43838"/><path d="m349.99 20.04v113.44c0 2.76-2.24 5-5 5h-19.04c2.76 0 5-2.24 5-5v-113.44c0-7.6-4.25-14.23-10.51-17.63 2.83-1.54 6.07-2.41 9.51-2.41 11.05 0 20.04 8.99 20.04 20.04z" fill="#d30505"/><path d="m201.496 20.041v113.44c0 2.76-2.24 5-5 5h-30.07c-2.76 0-5-2.24-5-5v-113.44c0-7.61 4.26-14.24 10.52-17.63 2.83-1.54 6.07-2.41 9.51-2.41 11.05 0 20.04 8.99 20.04 20.04z" fill="#f43838"/><path d="m201.496 20.041v113.44c0 2.76-2.24 5-5 5h-19.04c2.76 0 5-2.24 5-5v-113.44c0-7.6-4.25-14.23-10.51-17.63 2.83-1.54 6.07-2.41 9.51-2.41 11.05 0 20.04 8.99 20.04 20.04z" fill="#d30505"/></g><path d="m426.85 150.98c0 10.47-8.52 19-19 19h-301.94c-10.48 0-19-8.53-19-19 0-10.48 8.52-19 19-19h301.94c10.48 0 19 8.52 19 19z" fill="#f43838"/><path d="m426.85 150.98c0 10.47-8.52 19-19 19h-47.439c10.48 0 19-8.53 19-19 0-10.48-8.52-19-19-19h47.439c10.48 0 19 8.52 19 19z" fill="#d30505"/></g></svg>