<svg id="Capa_1" enable-background="new 0 0 512 512" height="512" viewBox="0 0 512 512" width="512" xmlns="http://www.w3.org/2000/svg"><g><path clip-rule="evenodd" d="m330.042 202.921h90.568c3.26.085 6.151 1.275 8.646 3.571l79.173 79.173c2.381 2.75 3.515 5.641 3.572 8.645v85.494c0 3.345-1.673 5.074-5.046 5.074h-176.913l-10.12-87.989z" fill="#dc4655" fill-rule="evenodd"/><path clip-rule="evenodd" d="m390.619 202.921h29.991c3.26.085 6.151 1.275 8.646 3.571l79.173 79.173c2.381 2.75 3.515 5.641 3.572 8.645v85.494c0 3.345-1.673 5.074-5.046 5.074h-30.02c3.402 0 5.074-1.729 5.074-5.074v-85.494c-.057-3.004-1.219-5.896-3.572-8.645l-79.172-79.173c-2.523-2.296-5.387-3.486-8.646-3.571z" fill="#d82e3d" fill-rule="evenodd"/><path clip-rule="evenodd" d="m453.152 289.237c4.394 0 5.159-4.904 3.005-7.058l-41.188-41.188c-2.324-2.325-5.244-3.572-8.646-3.572-12.586 0-25.172 0-37.758 0-2.211 0-4.025 1.786-4.025 3.997v43.824c0 2.212 1.814 3.997 4.025 3.997z" fill="#bed8fb" fill-rule="evenodd"/><path clip-rule="evenodd" d="m453.152 289.237c4.394 0 5.159-4.904 3.005-7.058l-41.188-41.188c-2.324-2.325-5.244-3.572-8.646-3.572h-29.991c3.374 0 6.293 1.247 8.646 3.572l41.159 41.188c2.183 2.154 1.418 7.058-2.976 7.058z" fill="#9dc6fb" fill-rule="evenodd"/><path d="m272.554 129.162c0-4.138 3.345-7.512 7.484-7.512 4.167 0 7.512 3.374 7.512 7.512v39.998c0 4.139-3.345 7.512-7.512 7.512-4.139 0-7.484-3.373-7.484-7.512zm-230.062 0c0-4.138 3.373-7.512 7.512-7.512s7.512 3.374 7.512 7.512v39.998c0 4.139-3.373 7.512-7.512 7.512s-7.512-3.373-7.512-7.512z" fill="#294b64"/><g clip-rule="evenodd" fill-rule="evenodd"><path d="m6.01 384.879c-3.316 0-6.01-2.693-6.01-6.01v-208.717c0-3.288 2.693-5.982 6.01-5.982h318.051c3.288 0 5.981 2.693 5.981 5.982v32.769 181.958c-9.638 0-19.276 0-28.914 0-17.991 0-55.244-14.457-55.244-14.457s-39.889 14.457-60.468 14.457c-59.804 0-119.609 0-179.406 0z" fill="#e6646e"/><path d="m294.042 164.17h30.02c3.288 0 5.981 2.693 5.981 5.982v214.727h-29.991v-214.727c-.001-3.288-2.694-5.982-6.01-5.982z" fill="#dc4655"/><path d="m185.416 384.879v-39.714c0-2.75 2.239-4.989 4.989-4.989h105.705c2.75 0 5.017 2.239 5.017 4.989v39.714z" fill="#f6faff"/><path d="m421.035 431.339c25.597 0 46.46-20.863 46.46-46.46 0-25.598-20.863-46.46-46.46-46.46-25.598 0-46.461 20.863-46.461 46.46.001 25.597 20.864 46.46 46.461 46.46z" fill="#365e7d"/><path d="m421.035 338.418c25.653 0 46.46 20.806 46.46 46.46s-20.807 46.46-46.46 46.46c-5.244 0-10.29-.879-14.996-2.495 18.284-6.236 31.436-23.556 31.436-43.965s-13.153-37.758-31.436-43.995c4.706-1.586 9.752-2.465 14.996-2.465z" fill="#294b64"/><path d="m110.014 431.339c25.597 0 46.46-20.863 46.46-46.46 0-25.598-20.863-46.46-46.46-46.46-25.569 0-46.46 20.863-46.46 46.46s20.891 46.46 46.46 46.46z" fill="#365e7d"/><path d="m110.014 338.418c25.682 0 46.46 20.806 46.46 46.46s-20.778 46.46-46.46 46.46c-5.245 0-10.29-.879-14.996-2.495 18.312-6.236 31.465-23.556 31.465-43.965s-13.153-37.758-31.465-43.995c4.706-1.586 9.752-2.465 14.996-2.465z" fill="#294b64"/><path d="m421.035 401.745c9.297 0 16.866-7.569 16.866-16.866 0-9.298-7.569-16.866-16.866-16.866-9.298 0-16.866 7.568-16.866 16.866 0 9.297 7.568 16.866 16.866 16.866z" fill="#3f6d8e"/><path d="m110.014 401.745c9.298 0 16.895-7.569 16.895-16.866 0-9.298-7.597-16.866-16.895-16.866-9.27 0-16.867 7.568-16.867 16.866 0 9.297 7.598 16.866 16.867 16.866z" fill="#3f6d8e"/></g><path d="m99.384 217.151c-4.139 0-7.512-3.345-7.512-7.484 0-4.138 3.373-7.512 7.512-7.512h61.569 33.846 33.591c15.279 0 29.141 6.236 39.204 16.299 10.035 10.063 16.271 23.925 16.271 39.175 0 15.279-6.236 29.141-16.271 39.204-10.063 10.035-23.924 16.271-39.204 16.271h-184.509v7.654c0 4.139-3.373 7.483-7.512 7.483s-7.483-3.345-7.483-7.483v-30.274c0-4.138 3.345-7.483 7.483-7.483 4.139 0 7.512 3.345 7.512 7.483v7.626h184.509c11.141 0 21.26-4.536 28.602-11.878s11.877-17.462 11.877-28.602c0-11.112-4.535-21.232-11.877-28.574s-17.461-11.905-28.602-11.905h-1.843c5.811 7.115 9.327 16.186 9.327 26.107 0 11.339-4.593 21.6-12.02 29.055-7.455 7.427-17.716 12.02-29.055 12.02-6.038 0-11.764-1.304-16.923-3.628-5.159 2.324-10.885 3.628-16.923 3.628-11.338 0-21.6-4.592-29.055-12.02-7.427-7.455-12.019-17.716-12.019-29.055 0-9.922 3.515-18.993 9.354-26.107zm93.375.085c5.811 7.087 9.297 16.158 9.297 26.023s-3.486 18.907-9.297 25.994c.68.057 1.36.085 2.041.085 7.2 0 13.72-2.919 18.425-7.653 4.734-4.706 7.654-11.225 7.654-18.425s-2.92-13.749-7.654-18.454c-4.706-4.734-11.225-7.653-18.425-7.653-.681-.002-1.361.026-2.041.083zm-29.765 52.016c-5.811-7.087-9.297-16.129-9.297-25.994 0-9.864 3.486-18.936 9.297-26.023-.68-.057-1.36-.085-2.041-.085-7.2 0-13.72 2.919-18.425 7.653-4.734 4.706-7.654 11.254-7.654 18.454s2.92 13.72 7.654 18.425c4.706 4.734 11.226 7.653 18.425 7.653.681.002 1.361-.026 2.041-.083zm14.882-45.865c-.539.454-1.049.936-1.53 1.417-4.734 4.706-7.654 11.254-7.654 18.454s2.92 13.72 7.654 18.425c.481.51.992.964 1.53 1.418.539-.454 1.049-.907 1.531-1.418 4.734-4.706 7.654-11.225 7.654-18.425s-2.92-13.749-7.654-18.454c-.482-.482-.992-.964-1.531-1.417z" fill="#b3e59f"/><path clip-rule="evenodd" d="m37.361 194.53h56.013c3.288 0 6.009 2.721 6.009 6.009v18.255c0 3.288-2.721 5.981-6.009 5.981h-56.013c-3.288 0-5.981-2.693-5.981-5.981v-18.254c0-3.289 2.693-6.01 5.981-6.01z" fill="#bed8fb" fill-rule="evenodd"/><path clip-rule="evenodd" d="m63.384 194.53h29.991c3.288 0 6.009 2.721 6.009 6.009v18.255c0 3.288-2.721 5.981-6.009 5.981h-29.991c3.288 0 5.981-2.693 5.981-5.981v-18.254c0-3.289-2.693-6.01-5.981-6.01z" fill="#9dc6fb" fill-rule="evenodd"/><path d="m43.938 95.656v25.994h21.742v-25.994zm-15.024 25.994v-25.994h-18.908c-4.138 0-7.512-3.345-7.512-7.483 0-4.139 3.374-7.512 7.512-7.512h310.057c4.139 0 7.484 3.373 7.484 7.512s-3.345 7.483-7.484 7.483h-18.936v25.994h18.936c4.139 0 7.484 3.374 7.484 7.512 0 4.139-3.345 7.512-7.484 7.512h-310.057c-4.138 0-7.512-3.374-7.512-7.512s3.374-7.512 7.512-7.512zm51.761 0h21.742v-25.994h-21.742zm36.738 0h21.742v-25.994h-21.742zm36.737 0h21.742v-25.994h-21.742zm36.738 0h21.742v-25.994h-21.742zm36.765 0h21.743v-25.994h-21.743zm36.738 0h21.742v-25.994h-21.742z" fill="#294b64"/><path clip-rule="evenodd" d="m223.997 340.176h38.551v44.703h-38.551z" fill="#ecf4ff" fill-rule="evenodd"/><path clip-rule="evenodd" d="m384.978 167.175c9.694 0 17.631 7.937 17.631 17.632v18.114h-35.291v-18.114c0-9.695 7.937-17.632 17.66-17.632z" fill="#ffc369" fill-rule="evenodd"/></g></svg>