<?xml version="1.0" encoding="iso-8859-1"?>
<!-- Generator: Adobe Illustrator 19.0.0, SVG Export Plug-In . SVG Version: 6.00 Build 0)  -->
<svg version="1.1" id="Capa_1" xmlns="http://www.w3.org/2000/svg" xmlns:xlink="http://www.w3.org/1999/xlink" x="0px" y="0px"
	 viewBox="0 0 512.004 512.004" style="enable-background:new 0 0 512.004 512.004;" xml:space="preserve">
<g>
	<g>
		<path style="fill:#7F8C8D;" d="M114.759,17.657h26.483c29.219,0,52.966,7.945,52.966,17.655c0,9.534-22.775,17.302-51.112,17.655
			h-90.13C23.746,52.968,0,45.023,0,35.313s23.746-17.655,52.966-17.655H114.759z"/>
		<path style="fill:#7F8C8D;" d="M397.241,44.14h26.483c29.219,0,52.966,7.945,52.966,17.655c0,9.534-22.775,17.302-51.112,17.655
			h-90.13c-29.219,0-52.966-7.945-52.966-17.655s23.746-17.655,52.966-17.655H397.241z"/>
	</g>
	<g>
		<path style="fill:#BDC3C7;" d="M97.103,0.002c9.751,0,17.655,7.904,17.655,17.655v97.103h-35.31V17.657
			C79.448,7.907,87.353,0.002,97.103,0.002z"/>
		<path style="fill:#BDC3C7;" d="M379.586,26.485c9.751,0,17.655,7.904,17.655,17.655v97.103h-35.31V44.14
			C361.931,34.389,369.836,26.485,379.586,26.485z"/>
	</g>
	<path style="fill:#5E5F62;" d="M406.069,500.968c-2.15,0.003-4.226-0.782-5.836-2.207L256,356.05L111.767,498.761
		c-2.364,2.095-5.667,2.767-8.662,1.762s-5.224-3.534-5.845-6.631c-0.621-3.097,0.46-6.29,2.835-8.373l150.069-147.862
		c3.336-2.94,8.337-2.94,11.672,0l150.069,147.862c2.755,2.427,3.72,6.307,2.422,9.742
		C413.03,498.696,409.741,500.969,406.069,500.968z"/>
	<g>
		<path style="fill:#24AE5F;" d="M35.31,203.037v-88.276c0-14.626,11.857-26.483,26.483-26.483h70.621
			c14.626,0,26.483,11.857,26.483,26.483v88.276H35.31z"/>
		<path style="fill:#24AE5F;" d="M326.621,203.037v-67.524c0.543-11.971,10.665-21.25,22.638-20.752h60.654
			c11.974-0.498,22.095,8.78,22.639,20.752v67.524H326.621z"/>
	</g>
	<path style="fill:#4FBA6F;" d="M432.552,185.382c24.373,0.009,44.129,19.765,44.138,44.138v29.572
		c24.319,8.586,38.91,33.449,34.547,58.867c-4.364,25.418-26.412,43.991-52.202,43.974H97.103
		c-25.758,0.015-50.465-10.211-68.679-28.425S-0.015,290.588,0,264.83v-61.793c0.029-9.739,7.916-17.627,17.655-17.655H432.552z"/>
	<path style="fill:#24AE5F;" d="M432.724,335.45H105.931c-4.875,0-8.828-3.952-8.828-8.828s3.952-8.828,8.828-8.828h326.793
		c4.875-0.005,8.831,3.944,8.836,8.819c0.005,4.875-3.944,8.831-8.819,8.836H432.724z"/>
	<g>
		<path style="fill:#ECF0F1;" d="M361.931,220.692h35.31c4.875,0,8.828,3.952,8.828,8.828v52.966c0,4.875-3.952,8.828-8.828,8.828
			h-35.31c-4.875,0-8.828-3.952-8.828-8.828v-52.966C353.103,224.644,357.056,220.692,361.931,220.692z"/>
		<circle style="fill:#ECF0F1;" cx="291.31" cy="256.002" r="26.483"/>
		<circle style="fill:#ECF0F1;" cx="194.207" cy="256.002" r="26.483"/>
		<circle style="fill:#ECF0F1;" cx="97.103" cy="256.002" r="26.483"/>
	</g>
	<path style="fill:#CB8252;" d="M88.276,476.692h335.448c9.751,0,17.655,7.904,17.655,17.655l0,0
		c0,9.751-7.905,17.655-17.655,17.655H88.276c-9.751,0-17.655-7.905-17.655-17.655l0,0
		C70.621,484.596,78.525,476.692,88.276,476.692z"/>
</g>
<g>
</g>
<g>
</g>
<g>
</g>
<g>
</g>
<g>
</g>
<g>
</g>
<g>
</g>
<g>
</g>
<g>
</g>
<g>
</g>
<g>
</g>
<g>
</g>
<g>
</g>
<g>
</g>
<g>
</g>
</svg>
