<svg id="Capa_1" enable-background="new 0 0 512 512" height="512" viewBox="0 0 512 512" width="512" xmlns="http://www.w3.org/2000/svg"><g id="XMLID_93_"><path id="XMLID_3278_" d="m154.409 108.312h30.326v36.896h-30.326z" fill="#a0a0bf"/><path id="XMLID_3437_" d="m282.253 143.186h-192.51c-42.306 0-76.602 34.296-76.602 76.602v1.664c0 42.306 34.296 76.602 76.602 76.602h192.51c42.306 0 76.602-34.296 76.602-76.602v-1.664c0-42.306-34.296-76.602-76.602-76.602z" fill="#fc6"/><path id="XMLID_3432_" d="m281.421 143.186h-82.282v154.867h82.282c42.765 0 77.434-34.668 77.434-77.434 0-42.764-34.668-77.433-77.434-77.433z" fill="#ffa64d"/><path id="XMLID_3280_" d="m87.037 143.186h30.326v154.867h-30.326z" fill="#ffa64d"/><path id="XMLID_3279_" d="m244.02 143.186h30.326v154.867h-30.326z" fill="#ff9100"/><path id="XMLID_3486_" d="m154.409 108.312h30.326v36.896h-30.326z" fill="#a0a0bf"/><path id="XMLID_3484_" d="m199.139 143.186h-108.564c-42.765 0-77.434 34.668-77.434 77.434 0 42.765 34.668 77.434 77.434 77.434h108.564c42.765 0 109.716-34.668 109.716-77.434 0-42.765-66.95-77.434-109.716-77.434z" fill="#fc6"/><path id="XMLID_85_" d="m281.421 143.186h-82.282v154.867h82.282c42.765 0 77.434-34.668 77.434-77.434 0-42.765-34.668-77.433-77.434-77.433z" fill="#ffa64d"/><path id="XMLID_3480_" d="m92.344 143.186h30.326v154.867h-30.326z" fill="#ffa64d"/><path id="XMLID_142_" d="m249.327 143.186h30.326v154.867h-30.326z" fill="#ff9100"/><path id="XMLID_3574_" d="m183.418 357.488h15.721l30.674-33.152-30.674-28.304h-121.977z" fill="#a0a0bf"/><path id="XMLID_3435_" d="m199.139 296.032v61.456h159.716l10.108-61.456z" fill="#6e6e87"/><path id="XMLID_3558_" d="m358.855 357.488v-206.72h63.013l90.132 83.618v123.102z" fill="#bdbdd2"/><path id="XMLID_3556_" d="m421.868 150.768v83.618h90.132l-50.12-83.618z" fill="#2ec7e6"/><g fill="#a0a0bf"><path id="XMLID_3526_" d="m0 295.021h64.948v30.326h-64.948z"/><circle id="XMLID_77_" cx="65.959" cy="348.849" r="39.676"/><circle id="XMLID_61_" cx="145.311" cy="348.849" r="39.676"/></g><path id="XMLID_3490_" d="m145.311 294.01c-15.596 0-29.681 6.555-39.676 17.042-9.995-10.487-24.08-17.042-39.676-17.042-30.238 0-54.839 24.601-54.839 54.839s24.601 54.839 54.839 54.839c15.596 0 29.681-6.555 39.676-17.042 9.995 10.487 24.08 17.042 39.676 17.042 30.238 0 54.839-24.601 54.839-54.839s-24.601-54.839-54.839-54.839zm-79.352 79.353c-13.517 0-24.513-10.997-24.513-24.513s10.997-24.513 24.513-24.513 24.513 10.997 24.513 24.513-10.997 24.513-24.513 24.513zm79.352 0c-13.517 0-24.513-10.997-24.513-24.513s10.997-24.513 24.513-24.513 24.513 10.997 24.513 24.513-10.996 24.513-24.513 24.513z" fill="#6e6e87"/><circle id="XMLID_66_" cx="413.323" cy="348.849" fill="#7c7c97" r="39.676"/><path id="XMLID_68_" d="m413.323 403.688c-30.238 0-54.839-24.601-54.839-54.839s24.601-54.839 54.839-54.839 54.839 24.601 54.839 54.839-24.601 54.839-54.839 54.839zm0-79.352c-13.517 0-24.513 10.997-24.513 24.513s10.997 24.513 24.513 24.513 24.513-10.997 24.513-24.513-10.996-24.513-24.513-24.513z" fill="#554e56"/><path id="XMLID_75_" d="m466.934 274.598h45.066v30.326h-45.066z" fill="#ff641a"/></g></svg>